<?xml version="1.0" encoding="utf-8"?>
<!-- Generator: Adobe Illustrator 19.2.1, SVG Export Plug-In . SVG Version: 6.00 Build 0)  -->
<svg version="1.1" id="layer" xmlns="http://www.w3.org/2000/svg" xmlns:xlink="http://www.w3.org/1999/xlink" x="0px" y="0px"
	 viewBox="0 0 652 652" style="enable-background:new 0 0 652 652;" xml:space="preserve">
<style type="text/css">
	.st0{fill-rule:evenodd;clip-rule:evenodd;fill:#008D35;}
	.st1{fill:#008D35;}
</style>
<path class="st0" d="M-8.4,92.7c0,0,3.2-13,9.7-13c6.5,0,8.6,3.3,8.6,10.8c0,7.6-1.1,68,2.2,84.1c3.2,16.2,11.9,64.7,55,73.4
	c43.1,8.6,178,17.3,194.2,141.3c2.2,33.5,1,183.4,1,183.4h-23.7c0,0-1.1-55-4.3-72.3c-3.2-17.3-12.9-79.8-79.8-93.9
	c-66.9-14-98.2-23.7-128.4-58.2C-4,313.8-10.5,283.6-9.4,242.6C-8.4,201.6-8.4,92.7-8.4,92.7"/>
<path class="st0" d="M90.9,215.6c0,0,94.9,17.3,155.3,105.7c0,0,0-93.9-100.3-202.8C145.9,118.5,97.4,149.9,90.9,215.6"/>
<path class="st0" d="M178.2,95.9c0,0,63.6,105.7,83.1,248.1c0,0,10.8-166.1,47.5-261C308.8,83,257,52.8,178.2,95.9"/>
<path class="st0" d="M346.5,98.1c0,0-64.7,86.3-78.8,272.9c0,22.7,44.2-147.7,156.4-184.5C424.2,186.5,401.5,119.7,346.5,98.1"/>
<path class="st0" d="M271,433.5c0,0,0-156.4,161.8-210.3C432.8,223.2,466.3,406.6,271,433.5"/>
<path class="st1" d="M413.9,399.3h63.5v6.5h-12v30.4c0,2.4-0.9,4.9-2.5,7.5c-1.7,2.6-3.4,3.9-5.2,3.9l-7.7-5.1
	c1.9,0,3.7-0.6,5.3-1.9c1.6-1.3,2.4-2.8,2.4-4.3v-30.5h-27.9v40l40.7,24.7c0.9,0.5,1.5,0.9,1.8,1.4c0.4,0.4,1.1,1.4,2.2,2.7
	c0.4,0.7,0.6,1.4,0.6,2.2c0,0.6,0,1.4-0.1,2.6c0,2.3-1.2,5.1-3.6,8.3l-3.6,3.3l-5.2-5.4c0.3-0.1,0.8-0.4,1.6-1.1
	c0.8-0.6,1.9-1.5,3.2-2.7c1.3-1.2,2.2-2.1,2.7-2.5c0.5-0.5,0.7-1,0.7-1.4l-0.3-2l-1-0.8l-48-28.6v-40.7h-7.7V399.3z"/>
<path class="st1" d="M475.5,399.3h59.3v6.5h-11.6v68.3l-8.4-6.2v-22.4c-1.3,1.6-2.3,2.4-3,2.8c-2.4,1.5-5.4,2.3-9,2.3
	c-4.3,0-9-3.3-14.2-9.8c-4.3-5.7-6.4-9.3-6.4-10.6v-24.4h-6.7V399.3z M514.9,405.8h-24.8v29.8l1.4,3.9c1.5,2.2,4.4,3.3,8.6,3.3
	c3.1,0,6.6-1,10.3-3.1c2.7-1.8,4.1-3.1,4.4-3.8V405.8z"/>
<path class="st1" d="M529.6,399.3h12.1v-1.3c0-2.2-1.6-6.2-4.7-12.2c-4.9-8.4-10.9-12.6-18-12.6c-3.6,0-6.2,1.3-7.9,3.9
	c-1.2,1.5-2,3-2.3,4.5c-0.4,1.2-0.5,2.9-0.5,5.1l0.4,3.9l1,3.4c0.9,2.2,2.3,3.9,4,5l-2,0.3l-4.3-5.9c-2.9-5.2-4.3-9.9-4.3-14
	c0-4,1-7.2,3-9.5c2.8-2.9,6.4-4.3,11-4.3c7.6,0,14.4,5.4,20.3,16.5c5,9.3,7,15,6.2,17.1h17v6.5h-11.7v68.3l-8.2-6.2v-62.1h-10.3
	L529.6,399.3z"/>
<path class="st1" d="M558.8,399.3h62.9v6.5h-14.2v17.4h-28.8c-2.2,0-3.8,0.5-4.8,1.7c-1,1.2-1.5,2.6-1.5,4.5c0,2.1,0.6,3.9,1.7,5.3
	c1.5,1.4,3.1,2.1,4.9,2.1c1.4-0.8,2.4-1.3,3-1.5c0.6-0.2,1.4-0.4,2.4-0.6c1.3-0.5,2.7-0.7,4-0.7h3.7c2.8,0,5.4,0.3,7.9,1
	c2.6,0.7,4.9,1.7,7,3c4.2,2.7,6.3,6.6,6.3,11.8c0,3.3-0.4,6.2-1.1,8.7c-0.8,2.5-1.8,4.6-3.3,6.2c-2.8,3.3-7.4,5-13.8,5
	c-5.7,0-13.1-3.6-22.2-10.7c-8.1-6.4-12.2-10.5-12.2-12.2l1-1.2c2.1,4.4,6.1,8.1,11.9,11.1c5.8,2.9,12.7,4.4,20.7,4.4
	c4,0,7.8-1.3,11.3-3.9c3.5-2.6,5.2-5.4,5.2-8.2c0-3.2-1.4-5.1-4.2-5.7c-2.4-0.8-6-1.2-10.9-1.2c-4.2,0-8.2,0.8-12,2.4l-1.7,0.9
	c-1,0-3.7-2.6-8.2-7.7c-5-5.9-7.5-10.6-7.5-14c0-1.9,0.8-3.5,2.5-4.9c1.7-1.3,3.5-2.1,5.5-2.1h25.8v-10.6h-41.4V399.3z"/>
<polygon class="st1" points="618.8,399.3 649,399.3 649,405.8 637.1,405.8 637.1,474.1 628.9,467.9 628.9,405.8 618.8,405.8 "/>
<path class="st1" d="M382.6,569.6l21.8-68.1h8.1l23.2,68.1h-8.6l-6.6-20.6h-23.9l-6.1,20.6H382.6z M398.9,541.7h19.3l-5.9-18.9
	c-1.8-5.7-3.1-10.5-4-14.1c-0.7,4.3-1.8,8.7-3.1,13L398.9,541.7z"/>
<path class="st1" d="M441.6,569.6v-68.1H463c5,0,8.7,0.4,11.1,1.3c3.3,1.2,5.9,3.3,7.8,6.5c2,3.2,2.9,7.1,2.9,11.8
	c0,6.1-1.6,11.1-4.8,15c-3.2,3.9-8.7,5.8-16.5,5.8h-14.5v27.7H441.6z M449.2,533.9h14.7c4.6,0,8-1,10.1-3.1c2.1-2.1,3.2-5.1,3.2-9.3
	c0-2.7-0.5-5-1.6-6.9c-1.1-1.9-2.3-3.2-3.8-3.9c-1.5-0.7-4.2-1-8.1-1h-14.5V533.9z"/>
<polygon class="st1" points="494.7,569.6 494.7,501.5 535.7,501.5 535.7,509.6 502.2,509.6 502.2,530.3 533.5,530.3 533.5,538.4 
	502.2,538.4 502.2,561.6 537,561.6 537,569.6 "/>
<path class="st1" d="M547.2,569.6v-68.1h19.6c4.8,0,8.5,0.4,11,1.2c3.3,1.1,6.2,3.1,8.6,5.9c2.4,2.9,4.3,6.5,5.7,10.9
	c1.3,4.4,2,9.6,2,15.6c0,7.7-1.2,14.2-3.5,19.6c-2.3,5.4-5.2,9.2-8.8,11.4c-3.6,2.3-8.3,3.4-14.1,3.4H547.2z M554.7,561.6h12.1
	c4.8,0,8.5-0.8,11.1-2.3c2.5-1.6,4.4-4.1,5.8-7.6c1.8-4.6,2.7-10.1,2.7-16.6c0-6.9-1-12.3-2.9-16.2c-1.9-3.9-4.3-6.6-7.3-8
	c-2-0.9-5.2-1.3-9.6-1.3h-11.9V561.6z"/>
<path class="st1" d="M598.3,569.6l21.8-68.1h8.1l23.2,68.1h-8.6l-6.6-20.6h-23.9l-6.1,20.6H598.3z M614.6,541.7h19.3l-5.9-18.9
	c-1.8-5.7-3.1-10.5-4-14.1c-0.7,4.3-1.8,8.7-3.1,13L614.6,541.7z"/>
</svg>
