<?xml version="1.0" standalone="no"?>
<!DOCTYPE svg PUBLIC "-//W3C//DTD SVG 20010904//EN"
 "http://www.w3.org/TR/2001/REC-SVG-20010904/DTD/svg10.dtd">
<svg version="1.0" xmlns="http://www.w3.org/2000/svg"
 width="2657.000000pt" height="2827.000000pt" viewBox="0 0 2657.000000 2827.000000"
 preserveAspectRatio="xMidYMid meet">

<g transform="translate(0.000000,2827.000000) scale(0.100000,-0.100000)"
fill="#000000" stroke="none">
<path d="M1529 23483 l-1436 -3 -7 -103 c-20 -316 -40 -1362 -57 -3012 -16
-1586 -23 -9858 -10 -12590 22 -4584 55 -7212 97 -7633 l6 -63 97 6 c231 14
633 25 1261 35 705 12 1649 4 3295 -25 1111 -20 1664 -24 8670 -65 7277 -43
12076 -32 12943 31 78 5 149 12 157 16 13 4 15 342 15 2719 l0 2714 -1070 0
-1070 0 0 -869 0 -869 -332 -5 c-260 -5 -20158 -39 -21677 -37 l-354 0 5 8806
c3 4843 7 8807 9 8808 2 2 1158 0 2569 -5 2751 -9 2657 -7 3015 -60 949 -140
1803 -553 2384 -1154 470 -487 746 -1048 852 -1735 20 -128 23 -184 24 -470 0
-258 -4 -354 -18 -465 -77 -594 -227 -982 -538 -1396 -378 -501 -931 -921
-1524 -1157 -501 -199 -1077 -343 -1585 -397 -324 -33 -457 -38 -1331 -44
l-896 -6 2768 -3630 c1522 -1996 2842 -3734 2933 -3860 91 -127 188 -256 216
-287 69 -77 183 -152 278 -182 207 -65 279 -68 1579 -60 l1132 7 -6 31 c-11
58 -62 180 -114 271 -171 301 -466 691 -1120 1480 -146 176 -304 370 -351 430
-310 400 -3028 3966 -3028 3973 0 24 147 101 425 225 748 332 1359 701 1834
1105 287 246 650 663 844 970 82 130 310 582 395 784 259 612 404 1177 456
1778 18 202 21 652 6 846 -47 601 -203 1269 -427 1839 -339 861 -1036 1641
-2003 2242 -769 478 -1637 804 -2480 932 -511 77 -626 82 -2040 91 -1177 7
-1357 12 -1665 40 -65 6 -430 9 -900 7 -434 -1 -1436 -3 -2226 -4z m7690
-20408 c267 -38 466 -130 634 -294 166 -161 269 -378 306 -645 16 -114 14
-391 -5 -513 -40 -276 -140 -481 -312 -645 -231 -220 -518 -311 -931 -295
-185 7 -299 26 -441 73 -192 64 -341 169 -463 329 -168 220 -239 459 -238 804
0 169 10 260 42 390 110 443 452 739 925 800 112 14 370 12 483 -4z m4258 -1
c550 -81 879 -421 944 -974 14 -129 7 -401 -15 -522 -85 -468 -383 -778 -835
-869 -215 -44 -537 -35 -757 21 -413 104 -687 413 -770 870 -24 131 -24 427 0
565 90 527 433 847 981 918 83 11 356 6 452 -9z m8178 1 c327 -49 522 -174
626 -401 31 -67 69 -206 69 -251 l0 -29 -302 -17 c-384 -22 -378 -22 -378 3 0
10 -10 45 -21 77 -29 79 -107 156 -181 178 -63 19 -204 21 -256 4 -85 -27
-132 -85 -132 -163 0 -90 65 -132 280 -182 563 -132 751 -210 907 -378 71 -75
124 -176 149 -281 21 -92 14 -283 -14 -371 -86 -270 -300 -464 -596 -539 -255
-64 -653 -58 -915 15 -135 38 -217 85 -312 179 -96 96 -154 186 -198 307 -27
73 -65 254 -55 263 4 4 482 37 614 42 l63 3 22 -80 c28 -106 51 -151 105 -204
101 -102 275 -136 431 -84 135 44 204 185 148 301 -44 92 -129 134 -423 208
-378 96 -566 178 -698 308 -262 255 -227 696 73 921 118 89 286 151 471 174
121 15 412 14 523 -3z m-15745 -275 l0 -250 -525 0 -525 0 0 -200 0 -200 450
0 450 0 0 -240 0 -240 -450 0 -450 0 0 -475 0 -475 -360 0 -360 0 0 1165 0
1165 885 0 885 0 0 -250z m11790 235 c414 -62 677 -318 776 -754 59 -263 56
-601 -8 -856 -64 -255 -244 -482 -477 -600 -30 -15 -97 -38 -150 -51 -199 -51
-244 -54 -873 -54 l-588 0 0 1165 0 1165 613 0 c482 0 632 -3 707 -15z"/>
<path d="M8809 2517 c-157 -54 -252 -168 -296 -357 -26 -110 -26 -465 1 -565
56 -214 181 -335 375 -366 211 -32 402 54 486 221 54 106 69 204 70 440 0 241
-8 289 -70 416 -54 110 -149 187 -270 218 -89 24 -216 20 -296 -7z"/>
<path d="M13089 2526 c-154 -43 -268 -166 -313 -341 -41 -161 -42 -442 -1
-600 54 -208 180 -327 378 -356 209 -31 403 59 481 225 89 188 102 577 27 791
-51 144 -157 242 -306 281 -62 17 -205 16 -266 0z"/>
<path d="M17100 1885 l0 -635 123 0 c248 0 365 29 439 108 51 54 80 110 105
202 26 94 26 522 0 623 -36 145 -97 231 -198 282 -78 40 -167 55 -326 55
l-143 0 0 -635z"/>
</g>
</svg>
